<svg id="Layer_1" data-name="Layer 1" xmlns="http://www.w3.org/2000/svg" viewBox="0 0 395.07 801.72"><defs><style>.cls-1{fill:#ed1c24;}.cls-1,.cls-2,.cls-3{stroke:#231f20;stroke-miterlimit:10;}.cls-1,.cls-3{stroke-width:0.5px;}.cls-2{fill:#fff;}.cls-3{fill:#ed2024;}</style></defs><path class="cls-1" d="M513.38,284c2.41-14,20.83-131.36-55.15-204.51C353.87-20.95,150.18,38,125,114c-19.65,59.44,79.26,100.79,121.79,232.09,36.34,112.18,10,223.67-22.62,306.89h93c58.23-125.67,54.42-214.51,33-277-34.85-101.83-123.46-154.53-102-197,14.7-29.09,74.56-40.48,106.62-19,42.82,28.65,15.91,102.41,57.45,131C439.51,309.66,480.57,298.25,513.38,284Z" transform="translate(-122.24 -25.98)"/><path class="cls-2" d="M421.47,323.11" transform="translate(-122.24 -25.98)"/><ellipse class="cls-3" cx="142.97" cy="729.13" rx="79.88" ry="75.01"/></svg>